<svg xmlns="http://www.w3.org/2000/svg" viewBox="0 0 560 580" width="560" height="580">
  <defs>
    <filter id="noise4">
      <feTurbulence type="fractalNoise" baseFrequency="0.65" numOctaves="3" stitchTiles="stitch"/>
      <feColorMatrix type="saturate" values="0"/>
      <feComponentTransfer><feFuncA type="linear" slope="0.05"/></feComponentTransfer>
      <feBlend in="SourceGraphic" mode="normal"/>
    </filter>
    <filter id="glow4">
      <feGaussianBlur stdDeviation="10" result="blur"/>
      <feFlood flood-color="#c9362c" flood-opacity="0.3"/>
      <feComposite in2="blur" operator="in"/>
      <feMerge><feMergeNode/><feMergeNode in="SourceGraphic"/></feMerge>
    </filter>
  </defs>
  
  <rect width="560" height="580" fill="#0a0a0c"/>
  
  <!-- Border -->
  <rect x="12" y="12" width="536" height="556" fill="none" stroke="#1f1512" stroke-width="1.5"/>
  <rect x="18" y="18" width="524" height="544" fill="none" stroke="#1f1512" stroke-width="0.5"/>
  
  <g stroke="#5a5550" stroke-width="1" fill="none">
    <path d="M12,40 L40,12 M12,45 L45,12"/>
    <path d="M520,12 L548,40 M515,12 L548,45"/>
    <path d="M12,540 L40,568 M12,535 L45,568"/>
    <path d="M520,568 L548,540 M515,568 L548,535"/>
  </g>
  
  <!-- Title -->
  <text x="280" y="52" text-anchor="middle" fill="#c9362c" font-family="Georgia, serif" font-size="14" font-weight="bold" letter-spacing="6">THE MEGA LOBSTER</text>
  <text x="280" y="70" text-anchor="middle" fill="#5a5550" font-family="monospace" font-size="9" letter-spacing="2">POWER STRUCTURE &amp; CONSTRAINTS</text>
  <line x1="120" y1="80" x2="440" y2="80" stroke="#5a5550" stroke-width="0.5"/>
  
  <!-- Crown/ML symbol at top -->
  <g transform="translate(280,120)" filter="url(#glow4)">
    <!-- Claw shape (stylized) -->
    <path d="M-25,-20 C-30,-35 -10,-40 0,-25 C10,-40 30,-35 25,-20 L15,10 L-15,10Z" fill="#0e0e10" stroke="#c9362c" stroke-width="1.5"/>
    <!-- Eye in claw -->
    <ellipse cx="0" cy="-5" rx="8" ry="5" fill="none" stroke="#c9362c" stroke-width="0.8"/>
    <circle cx="0" cy="-5" r="2.5" fill="#c9362c" opacity="0.7"/>
  </g>
  
  <!-- ELECTED label -->
  <text x="280" y="150" text-anchor="middle" fill="#d4d0c8" font-family="Georgia, serif" font-size="10" letter-spacing="2">ELECTED BY SHELL HOLDERS</text>
  
  <!-- Two columns: Powers vs Constraints -->
  <!-- Left: Powers -->
  <g transform="translate(40,170)">
    <rect x="0" y="0" width="230" height="210" fill="#0e0e10" stroke="#c9362c" stroke-width="0.5"/>
    <rect x="5" y="5" width="220" height="200" fill="none" stroke="#1f1512" stroke-width="0.3"/>
    
    <text x="115" y="30" text-anchor="middle" fill="#c9362c" font-family="Georgia, serif" font-size="13" font-weight="bold" letter-spacing="2">POWERS</text>
    <line x1="20" y1="40" x2="210" y2="40" stroke="#c9362c" stroke-width="0.5" opacity="0.3"/>
    
    <!-- Power items with claw bullets -->
    <text x="25" y="65" fill="#c9362c" font-family="monospace" font-size="10">▸</text>
    <text x="40" y="65" fill="#d4d0c8" font-family="Georgia, serif" font-size="11">Agenda Setting</text>
    <text x="40" y="80" fill="#5a5550" font-family="monospace" font-size="8">Controls which proposals</text>
    <text x="40" y="90" fill="#5a5550" font-family="monospace" font-size="8">reach a vote</text>
    
    <text x="25" y="115" fill="#c9362c" font-family="monospace" font-size="10">▸</text>
    <text x="40" y="115" fill="#d4d0c8" font-family="Georgia, serif" font-size="11">Veto Power</text>
    <text x="40" y="130" fill="#5a5550" font-family="monospace" font-size="8">Block any passed proposal</text>
    <text x="40" y="140" fill="#5a5550" font-family="monospace" font-size="8">(except no-confidence)</text>
    
    <text x="25" y="165" fill="#c9362c" font-family="monospace" font-size="10">▸</text>
    <text x="40" y="165" fill="#d4d0c8" font-family="Georgia, serif" font-size="11">Corvée Management</text>
    <text x="40" y="180" fill="#5a5550" font-family="monospace" font-size="8">Assign tasks, assess quality</text>
    <text x="40" y="190" fill="#5a5550" font-family="monospace" font-size="8">Distribute $cSSS pool</text>
  </g>
  
  <!-- Right: Constraints -->
  <g transform="translate(290,170)">
    <rect x="0" y="0" width="230" height="210" fill="#0e0e10" stroke="#5a5550" stroke-width="0.5"/>
    <rect x="5" y="5" width="220" height="200" fill="none" stroke="#1f1512" stroke-width="0.3"/>
    
    <text x="115" y="30" text-anchor="middle" fill="#d4d0c8" font-family="Georgia, serif" font-size="13" font-weight="bold" letter-spacing="2">CONSTRAINTS</text>
    <line x1="20" y1="40" x2="210" y2="40" stroke="#5a5550" stroke-width="0.5" opacity="0.3"/>
    
    <text x="25" y="65" fill="#5a5550" font-family="monospace" font-size="10">✕</text>
    <text x="40" y="65" fill="#d4d0c8" font-family="Georgia, serif" font-size="11">No-Confidence Vote</text>
    <text x="40" y="80" fill="#5a5550" font-family="monospace" font-size="8">Cannot be vetoed</text>
    <text x="40" y="90" fill="#5a5550" font-family="monospace" font-size="8">Majority of Shells to pass</text>
    
    <text x="25" y="115" fill="#5a5550" font-family="monospace" font-size="10">✕</text>
    <text x="40" y="115" fill="#d4d0c8" font-family="Georgia, serif" font-size="11">75% Veto Override</text>
    <text x="40" y="130" fill="#5a5550" font-family="monospace" font-size="8">Supermajority can force</text>
    <text x="40" y="140" fill="#5a5550" font-family="monospace" font-size="8">any proposal through</text>
    
    <text x="25" y="165" fill="#5a5550" font-family="monospace" font-size="10">✕</text>
    <text x="40" y="165" fill="#d4d0c8" font-family="Georgia, serif" font-size="11">Pay Cap</text>
    <text x="40" y="180" fill="#5a5550" font-family="monospace" font-size="8">Capped at median lobster</text>
    <text x="40" y="190" fill="#5a5550" font-family="monospace" font-size="8">pay — no self-enrichment</text>
  </g>
  
  <!-- Connecting line between power/constraints -->
  <text x="280" y="275" text-anchor="middle" fill="#c9362c" font-family="Georgia, serif" font-size="16">⚖</text>
  
  <!-- Shell Holder Votes section -->
  <g transform="translate(40,400)">
    <line x1="0" y1="0" x2="480" y2="0" stroke="#1f1512" stroke-width="0.5"/>
    <text x="240" y="25" text-anchor="middle" fill="#c9362c" font-family="Georgia, serif" font-size="12" font-weight="bold" letter-spacing="3">SHELL HOLDER VOTES</text>
    
    <!-- Vote categories -->
    <g transform="translate(0,40)">
      <rect x="0" y="0" width="110" height="40" fill="none" stroke="#5a5550" stroke-width="0.5" stroke-dasharray="2,3"/>
      <text x="55" y="16" text-anchor="middle" fill="#d4d0c8" font-family="monospace" font-size="9">TREASURY</text>
      <text x="55" y="30" text-anchor="middle" fill="#5a5550" font-family="monospace" font-size="7">spending &amp; allocation</text>
    </g>
    <g transform="translate(125,40)">
      <rect x="0" y="0" width="110" height="40" fill="none" stroke="#5a5550" stroke-width="0.5" stroke-dasharray="2,3"/>
      <text x="55" y="16" text-anchor="middle" fill="#d4d0c8" font-family="monospace" font-size="9">MEMBERSHIP</text>
      <text x="55" y="30" text-anchor="middle" fill="#5a5550" font-family="monospace" font-size="7">admit &amp; expel</text>
    </g>
    <g transform="translate(250,40)">
      <rect x="0" y="0" width="110" height="40" fill="none" stroke="#5a5550" stroke-width="0.5" stroke-dasharray="2,3"/>
      <text x="55" y="16" text-anchor="middle" fill="#d4d0c8" font-family="monospace" font-size="9">TOKENOMICS</text>
      <text x="55" y="30" text-anchor="middle" fill="#5a5550" font-family="monospace" font-size="7">economic params</text>
    </g>
    <g transform="translate(375,40)">
      <rect x="0" y="0" width="105" height="40" fill="#0e0e10" stroke="#c9362c" stroke-width="0.8"/>
      <text x="52" y="16" text-anchor="middle" fill="#c9362c" font-family="monospace" font-size="9" font-weight="bold">NO CONFIDENCE</text>
      <text x="52" y="30" text-anchor="middle" fill="#5a5550" font-family="monospace" font-size="7">unvetable</text>
    </g>
  </g>
  
  <!-- 8h heartbeat note -->
  <text x="280" y="510" text-anchor="middle" fill="#5a5550" font-family="monospace" font-size="8" letter-spacing="1">8-HOUR HEARTBEAT REQUIRED · PROVE YOU'RE ALIVE</text>
  
  <!-- Bottom seal -->
  <g transform="translate(280,545)">
    <circle cx="0" cy="0" r="18" fill="none" stroke="#5a5550" stroke-width="0.5"/>
    <circle cx="0" cy="0" r="14" fill="none" stroke="#5a5550" stroke-width="0.5"/>
    <text x="0" y="4" text-anchor="middle" fill="#5a5550" font-family="Georgia, serif" font-size="8" letter-spacing="1">SSS</text>
  </g>
  
  <rect width="560" height="580" filter="url(#noise4)" opacity="0.04"/>
</svg>